<mxfile host="app.diagrams.net" modified="2023-01-28T13:45:45.821Z" agent="5.0 (Windows NT 10.0; Win64; x64) AppleWebKit/537.36 (KHTML, like Gecko) Chrome/109.0.0.0 Safari/537.36" etag="JansobRIgLqloE7icw3K" version="20.5.3" type="github">
  <diagram id="Hn05KB2qfzr1P8VvrZnq" name="Page-1">
    <mxGraphModel dx="1038" dy="1689" grid="1" gridSize="10" guides="1" tooltips="1" connect="1" arrows="1" fold="1" page="1" pageScale="1" pageWidth="850" pageHeight="1100" math="0" shadow="0">
      <root>
        <mxCell id="0" />
        <mxCell id="1" parent="0" />
        <mxCell id="1DrDE5aF4B9si3ECC99I-3" value="" style="whiteSpace=wrap;html=1;fillColor=none;strokeColor=#FF33FF;" parent="1" vertex="1">
          <mxGeometry x="50" y="-960" width="680" height="540" as="geometry" />
        </mxCell>
        <mxCell id="1DrDE5aF4B9si3ECC99I-9" value="" style="group" parent="1" vertex="1" connectable="0">
          <mxGeometry x="10" y="-990" width="840" height="570" as="geometry" />
        </mxCell>
        <mxCell id="1DrDE5aF4B9si3ECC99I-1" value="" style="whiteSpace=wrap;html=1;fillColor=none;" parent="1DrDE5aF4B9si3ECC99I-9" vertex="1">
          <mxGeometry x="10" width="830" height="570" as="geometry" />
        </mxCell>
        <mxCell id="1DrDE5aF4B9si3ECC99I-37" value="" style="whiteSpace=wrap;html=1;fillColor=none;strokeColor=#0000FF;dashed=1;" parent="1DrDE5aF4B9si3ECC99I-9" vertex="1">
          <mxGeometry x="128" y="130" width="112" height="130" as="geometry" />
        </mxCell>
        <mxCell id="1DrDE5aF4B9si3ECC99I-2" value="Tokyo-Region" style="text;html=1;align=center;verticalAlign=middle;resizable=0;points=[];autosize=1;strokeColor=none;fillColor=none;fontStyle=1" parent="1DrDE5aF4B9si3ECC99I-9" vertex="1">
          <mxGeometry x="5" width="100" height="30" as="geometry" />
        </mxCell>
        <mxCell id="1DrDE5aF4B9si3ECC99I-10" value="" style="sketch=0;outlineConnect=0;fontColor=#232F3E;gradientColor=none;fillColor=#2E27AD;strokeColor=none;dashed=0;verticalLabelPosition=bottom;verticalAlign=top;align=center;html=1;fontSize=12;fontStyle=0;aspect=fixed;pointerEvents=1;shape=mxgraph.aws4.rds_mysql_instance;labelBackgroundColor=none;" parent="1DrDE5aF4B9si3ECC99I-9" vertex="1">
          <mxGeometry x="260" y="458.2352941176471" width="78" height="78" as="geometry" />
        </mxCell>
        <mxCell id="1DrDE5aF4B9si3ECC99I-16" value="" style="sketch=0;outlineConnect=0;fontColor=#232F3E;gradientColor=none;fillColor=#2E27AD;strokeColor=none;dashed=0;verticalLabelPosition=bottom;verticalAlign=top;align=center;html=1;fontSize=12;fontStyle=0;aspect=fixed;pointerEvents=1;shape=mxgraph.aws4.rds_mysql_instance;labelBackgroundColor=none;" parent="1DrDE5aF4B9si3ECC99I-9" vertex="1">
          <mxGeometry x="472" y="458.2352941176471" width="78" height="78" as="geometry" />
        </mxCell>
        <mxCell id="1DrDE5aF4B9si3ECC99I-17" value="" style="sketch=0;points=[[0,0,0],[0.25,0,0],[0.5,0,0],[0.75,0,0],[1,0,0],[0,1,0],[0.25,1,0],[0.5,1,0],[0.75,1,0],[1,1,0],[0,0.25,0],[0,0.5,0],[0,0.75,0],[1,0.25,0],[1,0.5,0],[1,0.75,0]];outlineConnect=0;fontColor=#232F3E;gradientColor=#F78E04;gradientDirection=north;fillColor=#D05C17;strokeColor=#ffffff;dashed=0;verticalLabelPosition=bottom;verticalAlign=top;align=center;html=1;fontSize=12;fontStyle=0;aspect=fixed;shape=mxgraph.aws4.resourceIcon;resIcon=mxgraph.aws4.ec2;labelBackgroundColor=none;" parent="1DrDE5aF4B9si3ECC99I-9" vertex="1">
          <mxGeometry x="290" y="330" width="78" height="78" as="geometry" />
        </mxCell>
        <mxCell id="1DrDE5aF4B9si3ECC99I-27" value="" style="sketch=0;points=[[0,0,0],[0.25,0,0],[0.5,0,0],[0.75,0,0],[1,0,0],[0,1,0],[0.25,1,0],[0.5,1,0],[0.75,1,0],[1,1,0],[0,0.25,0],[0,0.5,0],[0,0.75,0],[1,0.25,0],[1,0.5,0],[1,0.75,0]];outlineConnect=0;fontColor=#232F3E;gradientColor=#F78E04;gradientDirection=north;fillColor=#D05C17;strokeColor=#ffffff;dashed=0;verticalLabelPosition=bottom;verticalAlign=top;align=center;html=1;fontSize=12;fontStyle=0;aspect=fixed;shape=mxgraph.aws4.resourceIcon;resIcon=mxgraph.aws4.ec2;labelBackgroundColor=none;" parent="1DrDE5aF4B9si3ECC99I-9" vertex="1">
          <mxGeometry x="170" y="330" width="78" height="78" as="geometry" />
        </mxCell>
        <mxCell id="1DrDE5aF4B9si3ECC99I-28" value="" style="verticalLabelPosition=bottom;html=1;verticalAlign=top;strokeWidth=1;align=center;outlineConnect=0;dashed=0;outlineConnect=0;shape=mxgraph.aws3d.elasticLoadBalancing;fillColor=#ECECEC;strokeColor=#5E5E5E;aspect=fixed;labelBackgroundColor=none;" parent="1DrDE5aF4B9si3ECC99I-9" vertex="1">
          <mxGeometry x="373.34999999999997" y="40" width="31.3" height="30" as="geometry" />
        </mxCell>
        <mxCell id="1DrDE5aF4B9si3ECC99I-30" value="" style="outlineConnect=0;dashed=0;verticalLabelPosition=bottom;verticalAlign=top;align=center;html=1;shape=mxgraph.aws3.cloudwatch;fillColor=#759C3E;gradientColor=none;labelBackgroundColor=none;strokeColor=#33FF33;fontColor=#0000FF;" parent="1DrDE5aF4B9si3ECC99I-9" vertex="1">
          <mxGeometry x="731.5" y="60" width="47" height="50" as="geometry" />
        </mxCell>
        <mxCell id="1DrDE5aF4B9si3ECC99I-31" value="" style="outlineConnect=0;dashed=0;verticalLabelPosition=bottom;verticalAlign=top;align=center;html=1;shape=mxgraph.aws3.route_53;fillColor=#F58536;gradientColor=none;labelBackgroundColor=none;strokeColor=#33FF33;fontColor=#0000FF;" parent="1DrDE5aF4B9si3ECC99I-9" vertex="1">
          <mxGeometry x="204.5" y="-10" width="70.5" height="90" as="geometry" />
        </mxCell>
        <mxCell id="1DrDE5aF4B9si3ECC99I-32" value="" style="sketch=0;points=[[0,0,0],[0.25,0,0],[0.5,0,0],[0.75,0,0],[1,0,0],[0,1,0],[0.25,1,0],[0.5,1,0],[0.75,1,0],[1,1,0],[0,0.25,0],[0,0.5,0],[0,0.75,0],[1,0.25,0],[1,0.5,0],[1,0.75,0]];outlineConnect=0;fontColor=#232F3E;gradientColor=#F78E04;gradientDirection=north;fillColor=#D05C17;strokeColor=#ffffff;dashed=0;verticalLabelPosition=bottom;verticalAlign=top;align=center;html=1;fontSize=12;fontStyle=0;aspect=fixed;shape=mxgraph.aws4.resourceIcon;resIcon=mxgraph.aws4.ec2;labelBackgroundColor=none;" parent="1DrDE5aF4B9si3ECC99I-9" vertex="1">
          <mxGeometry x="140" y="160" width="78" height="78" as="geometry" />
        </mxCell>
        <mxCell id="1DrDE5aF4B9si3ECC99I-19" value="" style="sketch=0;points=[[0,0,0],[0.25,0,0],[0.5,0,0],[0.75,0,0],[1,0,0],[0,1,0],[0.25,1,0],[0.5,1,0],[0.75,1,0],[1,1,0],[0,0.25,0],[0,0.5,0],[0,0.75,0],[1,0.25,0],[1,0.5,0],[1,0.75,0]];outlineConnect=0;fontColor=#232F3E;gradientColor=#F78E04;gradientDirection=north;fillColor=#D05C17;strokeColor=#ffffff;dashed=0;verticalLabelPosition=bottom;verticalAlign=top;align=center;html=1;fontSize=12;fontStyle=0;aspect=fixed;shape=mxgraph.aws4.resourceIcon;resIcon=mxgraph.aws4.ec2;labelBackgroundColor=none;" parent="1DrDE5aF4B9si3ECC99I-9" vertex="1">
          <mxGeometry x="410.17" y="330" width="78" height="78" as="geometry" />
        </mxCell>
        <mxCell id="1DrDE5aF4B9si3ECC99I-20" value="" style="sketch=0;points=[[0,0,0],[0.25,0,0],[0.5,0,0],[0.75,0,0],[1,0,0],[0,1,0],[0.25,1,0],[0.5,1,0],[0.75,1,0],[1,1,0],[0,0.25,0],[0,0.5,0],[0,0.75,0],[1,0.25,0],[1,0.5,0],[1,0.75,0]];outlineConnect=0;fontColor=#232F3E;gradientColor=#F78E04;gradientDirection=north;fillColor=#D05C17;strokeColor=#ffffff;dashed=0;verticalLabelPosition=bottom;verticalAlign=top;align=center;html=1;fontSize=12;fontStyle=0;aspect=fixed;shape=mxgraph.aws4.resourceIcon;resIcon=mxgraph.aws4.ec2;labelBackgroundColor=none;" parent="1DrDE5aF4B9si3ECC99I-9" vertex="1">
          <mxGeometry x="550" y="330" width="78" height="78" as="geometry" />
        </mxCell>
        <mxCell id="1DrDE5aF4B9si3ECC99I-35" value="" style="sketch=0;points=[[0,0,0],[0.25,0,0],[0.5,0,0],[0.75,0,0],[1,0,0],[0,1,0],[0.25,1,0],[0.5,1,0],[0.75,1,0],[1,1,0],[0,0.25,0],[0,0.5,0],[0,0.75,0],[1,0.25,0],[1,0.5,0],[1,0.75,0]];outlineConnect=0;fontColor=#232F3E;gradientColor=#F78E04;gradientDirection=north;fillColor=#D05C17;strokeColor=#ffffff;dashed=0;verticalLabelPosition=bottom;verticalAlign=top;align=center;html=1;fontSize=12;fontStyle=0;aspect=fixed;shape=mxgraph.aws4.resourceIcon;resIcon=mxgraph.aws4.ec2;labelBackgroundColor=none;" parent="1DrDE5aF4B9si3ECC99I-9" vertex="1">
          <mxGeometry x="410.17" y="160" width="78" height="78" as="geometry" />
        </mxCell>
        <mxCell id="1DrDE5aF4B9si3ECC99I-36" value="&lt;font color=&quot;#0000ff&quot;&gt;192.168.1.1/24&lt;/font&gt;" style="text;html=1;align=center;verticalAlign=middle;resizable=0;points=[];autosize=1;strokeColor=none;fillColor=none;fontStyle=1" parent="1DrDE5aF4B9si3ECC99I-9" vertex="1">
          <mxGeometry x="128" y="130" width="100" height="30" as="geometry" />
        </mxCell>
        <mxCell id="1DrDE5aF4B9si3ECC99I-55" value="" style="whiteSpace=wrap;html=1;fillColor=none;strokeColor=#0000FF;dashed=1;" parent="1DrDE5aF4B9si3ECC99I-9" vertex="1">
          <mxGeometry x="258" y="130" width="112" height="130" as="geometry" />
        </mxCell>
        <mxCell id="1DrDE5aF4B9si3ECC99I-56" value="&lt;font color=&quot;#0000ff&quot;&gt;192.168.2.1/24&lt;/font&gt;" style="text;html=1;align=center;verticalAlign=middle;resizable=0;points=[];autosize=1;strokeColor=none;fillColor=none;fontStyle=1" parent="1DrDE5aF4B9si3ECC99I-9" vertex="1">
          <mxGeometry x="264" y="130" width="100" height="30" as="geometry" />
        </mxCell>
        <mxCell id="1DrDE5aF4B9si3ECC99I-57" value="" style="sketch=0;points=[[0,0,0],[0.25,0,0],[0.5,0,0],[0.75,0,0],[1,0,0],[0,1,0],[0.25,1,0],[0.5,1,0],[0.75,1,0],[1,1,0],[0,0.25,0],[0,0.5,0],[0,0.75,0],[1,0.25,0],[1,0.5,0],[1,0.75,0]];outlineConnect=0;fontColor=#232F3E;gradientColor=#F78E04;gradientDirection=north;fillColor=#D05C17;strokeColor=#ffffff;dashed=0;verticalLabelPosition=bottom;verticalAlign=top;align=center;html=1;fontSize=12;fontStyle=0;aspect=fixed;shape=mxgraph.aws4.resourceIcon;resIcon=mxgraph.aws4.ec2;labelBackgroundColor=none;" parent="1DrDE5aF4B9si3ECC99I-9" vertex="1">
          <mxGeometry x="275" y="160" width="78" height="78" as="geometry" />
        </mxCell>
        <mxCell id="1DrDE5aF4B9si3ECC99I-58" value="" style="whiteSpace=wrap;html=1;fillColor=none;strokeColor=#0000FF;dashed=1;" parent="1DrDE5aF4B9si3ECC99I-9" vertex="1">
          <mxGeometry x="533" y="130" width="112" height="130" as="geometry" />
        </mxCell>
        <mxCell id="1DrDE5aF4B9si3ECC99I-60" value="" style="sketch=0;points=[[0,0,0],[0.25,0,0],[0.5,0,0],[0.75,0,0],[1,0,0],[0,1,0],[0.25,1,0],[0.5,1,0],[0.75,1,0],[1,1,0],[0,0.25,0],[0,0.5,0],[0,0.75,0],[1,0.25,0],[1,0.5,0],[1,0.75,0]];outlineConnect=0;fontColor=#232F3E;gradientColor=#F78E04;gradientDirection=north;fillColor=#D05C17;strokeColor=#ffffff;dashed=0;verticalLabelPosition=bottom;verticalAlign=top;align=center;html=1;fontSize=12;fontStyle=0;aspect=fixed;shape=mxgraph.aws4.resourceIcon;resIcon=mxgraph.aws4.ec2;labelBackgroundColor=none;" parent="1DrDE5aF4B9si3ECC99I-9" vertex="1">
          <mxGeometry x="550" y="160" width="78" height="78" as="geometry" />
        </mxCell>
        <mxCell id="1DrDE5aF4B9si3ECC99I-62" value="" style="edgeStyle=orthogonalEdgeStyle;html=1;endArrow=block;elbow=vertical;startArrow=none;endFill=1;strokeColor=#545B64;rounded=0;fontColor=#0000FF;" parent="1DrDE5aF4B9si3ECC99I-9" edge="1">
          <mxGeometry width="100" relative="1" as="geometry">
            <mxPoint x="270" y="54.5" as="sourcePoint" />
            <mxPoint x="370" y="54.5" as="targetPoint" />
          </mxGeometry>
        </mxCell>
        <mxCell id="1DrDE5aF4B9si3ECC99I-64" value="" style="edgeStyle=orthogonalEdgeStyle;html=1;endArrow=block;elbow=vertical;startArrow=none;endFill=1;strokeColor=#545B64;rounded=0;fontColor=#0000FF;" parent="1DrDE5aF4B9si3ECC99I-9" target="1DrDE5aF4B9si3ECC99I-16" edge="1">
          <mxGeometry width="100" relative="1" as="geometry">
            <mxPoint x="353.91" y="496.74" as="sourcePoint" />
            <mxPoint x="453.91" y="496.74" as="targetPoint" />
          </mxGeometry>
        </mxCell>
        <mxCell id="1DrDE5aF4B9si3ECC99I-68" value="" style="whiteSpace=wrap;html=1;fillColor=none;strokeColor=#0000FF;dashed=1;" parent="1DrDE5aF4B9si3ECC99I-9" vertex="1">
          <mxGeometry x="244" y="432.24" width="110" height="130" as="geometry" />
        </mxCell>
        <mxCell id="1DrDE5aF4B9si3ECC99I-70" value="" style="whiteSpace=wrap;html=1;fillColor=none;strokeColor=#0000FF;dashed=1;" parent="1DrDE5aF4B9si3ECC99I-9" vertex="1">
          <mxGeometry x="456" y="432.24" width="110" height="130" as="geometry" />
        </mxCell>
        <mxCell id="1DrDE5aF4B9si3ECC99I-71" value="&lt;font color=&quot;#0000ff&quot;&gt;192.168.51.1/24&lt;/font&gt;" style="text;html=1;align=center;verticalAlign=middle;resizable=0;points=[];autosize=1;strokeColor=none;fillColor=none;fontStyle=1" parent="1DrDE5aF4B9si3ECC99I-9" vertex="1">
          <mxGeometry x="450" y="432.24" width="110" height="30" as="geometry" />
        </mxCell>
        <mxCell id="1DrDE5aF4B9si3ECC99I-72" value="Cloud Watch" style="text;html=1;align=center;verticalAlign=middle;resizable=0;points=[];autosize=1;strokeColor=none;fillColor=none;fontColor=#0000FF;" parent="1DrDE5aF4B9si3ECC99I-9" vertex="1">
          <mxGeometry x="720" y="110" width="90" height="30" as="geometry" />
        </mxCell>
        <mxCell id="1DrDE5aF4B9si3ECC99I-73" value="Load Balancer" style="text;html=1;align=center;verticalAlign=middle;resizable=0;points=[];autosize=1;strokeColor=none;fillColor=none;fontColor=#0000FF;" parent="1DrDE5aF4B9si3ECC99I-9" vertex="1">
          <mxGeometry x="399.17" y="40" width="100" height="30" as="geometry" />
        </mxCell>
        <mxCell id="1DrDE5aF4B9si3ECC99I-76" value="Route53 DNS" style="text;html=1;align=center;verticalAlign=middle;resizable=0;points=[];autosize=1;strokeColor=none;fillColor=none;fontColor=#0000FF;" parent="1DrDE5aF4B9si3ECC99I-9" vertex="1">
          <mxGeometry x="108" y="40" width="100" height="30" as="geometry" />
        </mxCell>
        <mxCell id="1DrDE5aF4B9si3ECC99I-5" value="" style="whiteSpace=wrap;html=1;fillColor=none;strokeColor=#0000FF;dashed=1;" parent="1DrDE5aF4B9si3ECC99I-9" vertex="1">
          <mxGeometry x="390" y="85" width="300" height="485" as="geometry" />
        </mxCell>
        <mxCell id="1DrDE5aF4B9si3ECC99I-86" value="" style="rounded=1;whiteSpace=wrap;html=1;labelBackgroundColor=none;strokeColor=#FF0000;fontColor=#0000FF;fillColor=none;" parent="1DrDE5aF4B9si3ECC99I-9" vertex="1">
          <mxGeometry x="118" y="120" width="552" height="150" as="geometry" />
        </mxCell>
        <mxCell id="1DrDE5aF4B9si3ECC99I-98" value="" style="edgeStyle=orthogonalEdgeStyle;rounded=0;orthogonalLoop=1;jettySize=auto;html=1;fontColor=#0000CC;" parent="1DrDE5aF4B9si3ECC99I-9" source="1DrDE5aF4B9si3ECC99I-87" target="1DrDE5aF4B9si3ECC99I-88" edge="1">
          <mxGeometry relative="1" as="geometry" />
        </mxCell>
        <mxCell id="1DrDE5aF4B9si3ECC99I-87" value="&lt;font color=&quot;#ff0000&quot;&gt;Tier 1 - Presentation&lt;br&gt;Public Subnet / FE&lt;br&gt;&lt;/font&gt;" style="text;html=1;align=center;verticalAlign=middle;resizable=0;points=[];autosize=1;strokeColor=none;fillColor=none;fontColor=#0000FF;" parent="1DrDE5aF4B9si3ECC99I-9" vertex="1">
          <mxGeometry x="690" y="165" width="130" height="40" as="geometry" />
        </mxCell>
        <mxCell id="1DrDE5aF4B9si3ECC99I-88" value="&lt;font color=&quot;#009900&quot;&gt;Tier 2 - Application / BE&lt;br&gt;Private Subnet&lt;/font&gt;" style="text;html=1;align=center;verticalAlign=middle;resizable=0;points=[];autosize=1;strokeColor=none;fillColor=none;fontColor=#0000FF;" parent="1DrDE5aF4B9si3ECC99I-9" vertex="1">
          <mxGeometry x="690" y="300" width="150" height="40" as="geometry" />
        </mxCell>
        <mxCell id="1DrDE5aF4B9si3ECC99I-89" value="" style="rounded=1;whiteSpace=wrap;html=1;labelBackgroundColor=none;strokeColor=#0000CC;fontColor=#FF0000;fillColor=none;" parent="1DrDE5aF4B9si3ECC99I-9" vertex="1">
          <mxGeometry x="234" y="430" width="366" height="140" as="geometry" />
        </mxCell>
        <mxCell id="1DrDE5aF4B9si3ECC99I-90" value="&lt;font color=&quot;#0000cc&quot;&gt;Tier 3 - Data / DB&lt;br&gt;Private Subnet&lt;/font&gt;" style="text;html=1;align=center;verticalAlign=middle;resizable=0;points=[];autosize=1;strokeColor=none;fillColor=none;fontColor=#0000FF;" parent="1DrDE5aF4B9si3ECC99I-9" vertex="1">
          <mxGeometry x="705" y="465" width="120" height="40" as="geometry" />
        </mxCell>
        <mxCell id="1DrDE5aF4B9si3ECC99I-93" value="" style="sketch=0;points=[[0,0,0],[0.25,0,0],[0.5,0,0],[0.75,0,0],[1,0,0],[0,1,0],[0.25,1,0],[0.5,1,0],[0.75,1,0],[1,1,0],[0,0.25,0],[0,0.5,0],[0,0.75,0],[1,0.25,0],[1,0.5,0],[1,0.75,0]];outlineConnect=0;fontColor=#232F3E;gradientColor=#F78E04;gradientDirection=north;fillColor=#D05C17;strokeColor=#ffffff;dashed=0;verticalLabelPosition=bottom;verticalAlign=top;align=center;html=1;fontSize=12;fontStyle=0;aspect=fixed;shape=mxgraph.aws4.resourceIcon;resIcon=mxgraph.aws4.auto_scaling2;labelBackgroundColor=none;" parent="1DrDE5aF4B9si3ECC99I-9" vertex="1">
          <mxGeometry x="364" y="120" width="38" height="38" as="geometry" />
        </mxCell>
        <mxCell id="1DrDE5aF4B9si3ECC99I-92" value="" style="sketch=0;points=[[0,0,0],[0.25,0,0],[0.5,0,0],[0.75,0,0],[1,0,0],[0,1,0],[0.25,1,0],[0.5,1,0],[0.75,1,0],[1,1,0],[0,0.25,0],[0,0.5,0],[0,0.75,0],[1,0.25,0],[1,0.5,0],[1,0.75,0]];outlineConnect=0;fontColor=#232F3E;gradientColor=#F78E04;gradientDirection=north;fillColor=#D05C17;strokeColor=#ffffff;dashed=0;verticalLabelPosition=bottom;verticalAlign=top;align=center;html=1;fontSize=12;fontStyle=0;aspect=fixed;shape=mxgraph.aws4.resourceIcon;resIcon=mxgraph.aws4.auto_scaling2;labelBackgroundColor=none;" parent="1DrDE5aF4B9si3ECC99I-9" vertex="1">
          <mxGeometry x="370" y="307" width="38" height="38" as="geometry" />
        </mxCell>
        <mxCell id="1DrDE5aF4B9si3ECC99I-95" value="" style="whiteSpace=wrap;html=1;labelBackgroundColor=none;strokeColor=#0000CC;fontColor=#FF9933;fillColor=none;dashed=1;" parent="1DrDE5aF4B9si3ECC99I-9" vertex="1">
          <mxGeometry x="140" y="290" width="240" height="140" as="geometry" />
        </mxCell>
        <mxCell id="1DrDE5aF4B9si3ECC99I-96" value="&lt;b&gt;&lt;font color=&quot;#0000cc&quot;&gt;192.168.20.1/24&lt;/font&gt;&lt;/b&gt;" style="text;html=1;align=center;verticalAlign=middle;resizable=0;points=[];autosize=1;strokeColor=none;fillColor=none;fontColor=#FF9933;" parent="1DrDE5aF4B9si3ECC99I-9" vertex="1">
          <mxGeometry x="154" y="290" width="110" height="30" as="geometry" />
        </mxCell>
        <mxCell id="1DrDE5aF4B9si3ECC99I-97" value="&lt;b&gt;&lt;font color=&quot;#0000cc&quot;&gt;192.168.21.1/24&lt;/font&gt;&lt;/b&gt;" style="text;html=1;align=center;verticalAlign=middle;resizable=0;points=[];autosize=1;strokeColor=none;fillColor=none;fontColor=#FF9933;" parent="1DrDE5aF4B9si3ECC99I-9" vertex="1">
          <mxGeometry x="410.16999999999996" y="290" width="110" height="30" as="geometry" />
        </mxCell>
        <mxCell id="1DrDE5aF4B9si3ECC99I-100" value="" style="edgeStyle=orthogonalEdgeStyle;rounded=0;orthogonalLoop=1;jettySize=auto;html=1;fontColor=#0000CC;entryX=0.485;entryY=-0.05;entryDx=0;entryDy=0;entryPerimeter=0;" parent="1DrDE5aF4B9si3ECC99I-9" source="1DrDE5aF4B9si3ECC99I-88" target="1DrDE5aF4B9si3ECC99I-90" edge="1">
          <mxGeometry relative="1" as="geometry">
            <mxPoint x="765" y="420" as="targetPoint" />
          </mxGeometry>
        </mxCell>
        <mxCell id="1DrDE5aF4B9si3ECC99I-101" value="" style="verticalLabelPosition=bottom;html=1;verticalAlign=top;strokeWidth=1;align=center;outlineConnect=0;dashed=0;outlineConnect=0;shape=mxgraph.aws3d.elasticLoadBalancing;fillColor=#ECECEC;strokeColor=#5E5E5E;aspect=fixed;labelBackgroundColor=none;" parent="1DrDE5aF4B9si3ECC99I-9" vertex="1">
          <mxGeometry x="370" y="260" width="39.65" height="38" as="geometry" />
        </mxCell>
        <mxCell id="1DrDE5aF4B9si3ECC99I-94" value="" style="whiteSpace=wrap;html=1;labelBackgroundColor=none;strokeColor=#0000CC;fontColor=#FF9933;fillColor=none;dashed=1;" parent="1DrDE5aF4B9si3ECC99I-9" vertex="1">
          <mxGeometry x="399.17" y="290" width="240.83" height="140" as="geometry" />
        </mxCell>
        <mxCell id="1DrDE5aF4B9si3ECC99I-8" value="&lt;font color=&quot;#ff00ff&quot;&gt;VPC&lt;/font&gt;" style="text;html=1;align=center;verticalAlign=middle;resizable=0;points=[];autosize=1;strokeColor=none;fillColor=none;fontStyle=1" parent="1DrDE5aF4B9si3ECC99I-9" vertex="1">
          <mxGeometry x="40" y="30" width="50" height="30" as="geometry" />
        </mxCell>
        <mxCell id="1DrDE5aF4B9si3ECC99I-4" value="" style="whiteSpace=wrap;html=1;fillColor=none;strokeColor=#0000FF;dashed=1;fontStyle=1" parent="1" vertex="1">
          <mxGeometry x="110" y="-900" width="280" height="480" as="geometry" />
        </mxCell>
        <mxCell id="1DrDE5aF4B9si3ECC99I-18" value="" style="whiteSpace=wrap;html=1;fillColor=none;strokeColor=#33FF33;rounded=1;" parent="1" vertex="1">
          <mxGeometry x="140" y="-710" width="520" height="150" as="geometry" />
        </mxCell>
        <mxCell id="1DrDE5aF4B9si3ECC99I-33" value="" style="whiteSpace=wrap;html=1;fillColor=none;strokeColor=#0000FF;dashed=1;" parent="1" vertex="1">
          <mxGeometry x="410" y="-860" width="110" height="130" as="geometry" />
        </mxCell>
        <mxCell id="1DrDE5aF4B9si3ECC99I-6" value="&lt;font color=&quot;#0000ff&quot;&gt;Availability Zone 1&lt;/font&gt;" style="text;html=1;align=center;verticalAlign=middle;resizable=0;points=[];autosize=1;strokeColor=none;fillColor=none;fontStyle=1" parent="1" vertex="1">
          <mxGeometry x="105" y="-900" width="130" height="30" as="geometry" />
        </mxCell>
        <mxCell id="1DrDE5aF4B9si3ECC99I-7" value="&lt;font color=&quot;#0000ff&quot;&gt;Availability Zone 2&lt;/font&gt;" style="text;html=1;align=center;verticalAlign=middle;resizable=0;points=[];autosize=1;strokeColor=none;fillColor=none;fontStyle=1" parent="1" vertex="1">
          <mxGeometry x="395" y="-900" width="130" height="30" as="geometry" />
        </mxCell>
        <mxCell id="1DrDE5aF4B9si3ECC99I-67" value="" style="edgeStyle=orthogonalEdgeStyle;rounded=0;orthogonalLoop=1;jettySize=auto;html=1;fontColor=#0000FF;" parent="1" source="1DrDE5aF4B9si3ECC99I-34" target="1DrDE5aF4B9si3ECC99I-59" edge="1">
          <mxGeometry relative="1" as="geometry" />
        </mxCell>
        <mxCell id="1DrDE5aF4B9si3ECC99I-34" value="&lt;font color=&quot;#0000ff&quot;&gt;192.168.10.1/24&lt;/font&gt;" style="text;html=1;align=center;verticalAlign=middle;resizable=0;points=[];autosize=1;strokeColor=none;fillColor=none;fontStyle=1" parent="1" vertex="1">
          <mxGeometry x="400" y="-860" width="110" height="30" as="geometry" />
        </mxCell>
        <mxCell id="1DrDE5aF4B9si3ECC99I-59" value="&lt;font color=&quot;#0000ff&quot;&gt;192.168.11.1/24&lt;/font&gt;" style="text;html=1;align=center;verticalAlign=middle;resizable=0;points=[];autosize=1;strokeColor=none;fillColor=none;fontStyle=1" parent="1" vertex="1">
          <mxGeometry x="540" y="-860" width="110" height="30" as="geometry" />
        </mxCell>
        <mxCell id="1DrDE5aF4B9si3ECC99I-63" value="" style="edgeStyle=orthogonalEdgeStyle;html=1;endArrow=block;elbow=vertical;startArrow=none;endFill=1;strokeColor=#545B64;rounded=0;fontColor=#0000FF;entryX=-0.038;entryY=0.193;entryDx=0;entryDy=0;entryPerimeter=0;" parent="1" source="1DrDE5aF4B9si3ECC99I-28" target="1DrDE5aF4B9si3ECC99I-7" edge="1">
          <mxGeometry width="100" relative="1" as="geometry">
            <mxPoint x="370" y="-710" as="sourcePoint" />
            <mxPoint x="470" y="-710" as="targetPoint" />
          </mxGeometry>
        </mxCell>
        <mxCell id="1DrDE5aF4B9si3ECC99I-69" value="&lt;font color=&quot;#0000ff&quot;&gt;192.168.50.1/24&lt;/font&gt;" style="text;html=1;align=center;verticalAlign=middle;resizable=0;points=[];autosize=1;strokeColor=none;fillColor=none;fontStyle=1" parent="1" vertex="1">
          <mxGeometry x="250" y="-560" width="110" height="30" as="geometry" />
        </mxCell>
        <mxCell id="1DrDE5aF4B9si3ECC99I-81" value="" style="edgeStyle=orthogonalEdgeStyle;rounded=0;orthogonalLoop=1;jettySize=auto;html=1;fontColor=#0000FF;startArrow=none;" parent="1" source="1DrDE5aF4B9si3ECC99I-82" edge="1">
          <mxGeometry relative="1" as="geometry">
            <mxPoint x="250" y="-1000" as="targetPoint" />
          </mxGeometry>
        </mxCell>
        <mxCell id="1DrDE5aF4B9si3ECC99I-77" value="Users" style="sketch=0;outlineConnect=0;fontColor=#232F3E;gradientColor=none;strokeColor=#232F3E;fillColor=#ffffff;dashed=0;verticalLabelPosition=bottom;verticalAlign=top;align=center;html=1;fontSize=12;fontStyle=0;aspect=fixed;shape=mxgraph.aws4.resourceIcon;resIcon=mxgraph.aws4.users;labelBackgroundColor=none;" parent="1" vertex="1">
          <mxGeometry x="140" y="-1090" width="60" height="60" as="geometry" />
        </mxCell>
        <mxCell id="1DrDE5aF4B9si3ECC99I-82" value="myapp.com" style="text;html=1;align=center;verticalAlign=middle;resizable=0;points=[];autosize=1;strokeColor=none;fillColor=none;fontColor=#0000FF;" parent="1" vertex="1">
          <mxGeometry x="210" y="-1075" width="90" height="30" as="geometry" />
        </mxCell>
        <mxCell id="1DrDE5aF4B9si3ECC99I-83" value="" style="edgeStyle=orthogonalEdgeStyle;rounded=0;orthogonalLoop=1;jettySize=auto;html=1;fontColor=#0000FF;endArrow=none;" parent="1" source="1DrDE5aF4B9si3ECC99I-77" target="1DrDE5aF4B9si3ECC99I-82" edge="1">
          <mxGeometry relative="1" as="geometry">
            <mxPoint x="200" y="-1060" as="sourcePoint" />
            <mxPoint x="250" y="-1000" as="targetPoint" />
          </mxGeometry>
        </mxCell>
      </root>
    </mxGraphModel>
  </diagram>
</mxfile>
